<svg width="60" height="28" viewBox="0 0 60 28" fill="none" xmlns="http://www.w3.org/2000/svg">
<g clip-path="url(#clip0_6_3)">
<rect width="60" height="28" fill="white"/>
<path d="M57.7413 0H2.25873C1.7984 0 1.34907 0.140647 0.970895 0.403105C0.362738 0.825176 0 1.51846 0 2.25873V25.2965C0 25.9947 0.270124 26.6658 0.753811 27.1693C1.26358 27.7 1.96765 28 2.70352 28H57.2965C58.0323 28 58.7364 27.7 59.2462 27.1693C59.7299 26.6658 60 25.9947 60 25.2965V2.25873C60 1.51846 59.6373 0.825177 59.0291 0.403106C58.6509 0.140647 58.2016 0 57.7413 0Z" fill="#C6D0F5" stroke="#C6D0F5"/>
<path d="M58 2H2C1.44772 2 1 2.44772 1 3V25C1 25.5523 1.44771 26 2 26H58C58.5523 26 59 25.5523 59 25V3C59 2.44772 58.5523 2 58 2Z" fill="#292C3C" stroke="#C6D0F5"/>
<path d="M37.99 5H19.01C19.0045 5 19 4.99552 19 4.99V3.01C19 3.00448 19.0045 3 19.01 3H28.5H37.99C37.9955 3 38 3.00448 38 3.01V4.99C38 4.99552 37.9955 5 37.99 5Z" fill="#51576D" stroke="#51576D"/>
<path d="M37.5 9.5H19.5C19.2239 9.5 19 9.27614 19 9V7.5C19 7.22386 19.2239 7 19.5 7H37.5C37.7761 7 38 7.22386 38 7.5V9C38 9.27614 37.7761 9.5 37.5 9.5Z" fill="#51576D" stroke="#51576D"/>
<path d="M37.5 14H19.5C19.2239 14 19 13.7761 19 13.5V12C19 11.7239 19.2239 11.5 19.5 11.5H37.5C37.7761 11.5 38 11.7239 38 12V13.5C38 13.7761 37.7761 14 37.5 14Z" fill="#51576D" stroke="#51576D"/>
<path d="M37 22H20C19.4477 22 19 21.5523 19 21V17C19 16.4477 19.4477 16 20 16H37C37.5523 16 38 16.4477 38 17V21C38 21.5523 37.5523 22 37 22Z" fill="#C6D0F5" stroke="#C6D0F5"/>
<path d="M37.99 24H19.01C19.0045 24 19 24.0045 19 24.01V24.99C19 24.9955 19.0045 25 19.01 25H28.5H37.99C37.9955 25 38 24.9955 38 24.99V24.01C38 24.0045 37.9955 24 37.99 24Z" fill="#51576D" stroke="#51576D"/>
<path d="M25.6464 18H21.8536C21.6272 18 21.4101 18.0899 21.25 18.25C21.0899 18.4101 21 18.6272 21 18.8536V19.1464C21 19.3728 21.0899 19.5899 21.25 19.75C21.4101 19.9101 21.6272 20 21.8536 20H25.6464C25.8728 20 26.0899 19.9101 26.25 19.75C26.4101 19.5899 26.5 19.3728 26.5 19.1464V18.8536C26.5 18.6272 26.4101 18.4101 26.25 18.25C26.0899 18.0899 25.8728 18 25.6464 18Z" fill="#232634" stroke="#232634"/>
<path d="M35.6464 18H31.8536C31.6272 18 31.4101 18.0899 31.25 18.25C31.0899 18.4101 31 18.6272 31 18.8536V19.1464C31 19.3728 31.0899 19.5899 31.25 19.75C31.4101 19.9101 31.6272 20 31.8536 20H35.6464C35.8728 20 36.0899 19.9101 36.25 19.75C36.4101 19.5899 36.5 19.3728 36.5 19.1464V18.8536C36.5 18.6272 36.4101 18.4101 36.25 18.25C36.0899 18.0899 35.8728 18 35.6464 18Z" fill="#232634" stroke="#232634"/>
<path d="M12.7421 12H9.78421C9.72898 12 9.68421 12.0448 9.68421 12.1V15.4C9.68421 15.4552 9.63944 15.5 9.58421 15.5H6.1C6.04477 15.5 6 15.5448 6 15.6V18.4C6 18.4552 6.04477 18.5 6.1 18.5H9.58421C9.63944 18.5 9.68421 18.5448 9.68421 18.6V21.9C9.68421 21.9552 9.72898 22 9.78421 22H12.7421C12.7973 22 12.8421 21.9552 12.8421 21.9V18.6C12.8421 18.5448 12.8869 18.5 12.9421 18.5H15.9C15.9552 18.5 16 18.4552 16 18.4V15.6C16 15.5448 15.9552 15.5 15.9 15.5H12.9421C12.8869 15.5 12.8421 15.4552 12.8421 15.4V12.1C12.8421 12.0448 12.7973 12 12.7421 12Z" fill="#232634" stroke="#C6D0F5"/>
<path d="M46.5 15.5H41.5C40.9477 15.5 40.5 15.9477 40.5 16.5V21.5C40.5 22.0523 40.9477 22.5 41.5 22.5H46.5C47.0523 22.5 47.5 22.0523 47.5 21.5V16.5C47.5 15.9477 47.0523 15.5 46.5 15.5Z" fill="#C6D0F5" stroke="#C6D0F5"/>
<path d="M42 19C42 20.1046 42.8954 21 44 21C45.1046 21 46 20.1046 46 19C46 17.8954 45.1046 17 44 17C42.8954 17 42 17.8954 42 19Z" fill="#E78284" stroke="#E78284"/>
<path d="M55.5 15.5H50.5C49.9477 15.5 49.5 15.9477 49.5 16.5V21.5C49.5 22.0523 49.9477 22.5 50.5 22.5H55.5C56.0523 22.5 56.5 22.0523 56.5 21.5V16.5C56.5 15.9477 56.0523 15.5 55.5 15.5Z" fill="#C6D0F5" stroke="#C6D0F5"/>
<path d="M51 19C51 20.1046 51.8954 21 53 21C54.1046 21 55 20.1046 55 19C55 17.8954 54.1046 17 53 17C51.8954 17 51 17.8954 51 19Z" fill="#E78284" stroke="#E78284"/>
</g>
<defs>
<clipPath id="clip0_6_3">
<rect width="60" height="28" fill="white"/>
</clipPath>
</defs>
</svg>
